<mxfile host="app.diagrams.net" agent="Mozilla/5.0 (Windows NT 10.0; Win64; x64) AppleWebKit/537.36 (KHTML, like Gecko) Chrome/131.0.0.0 Safari/537.36" version="25.0.1">
  <diagram name="Page-1" id="x-IrG4mC_DyvVhbNM6L9">
    <mxGraphModel dx="260" dy="665" grid="1" gridSize="10" guides="1" tooltips="1" connect="1" arrows="1" fold="1" page="1" pageScale="1" pageWidth="850" pageHeight="1100" math="0" shadow="0">
      <root>
        <mxCell id="0" />
        <mxCell id="1" parent="0" />
        <mxCell id="75F8sYAHgex0go4ryfyi-85" style="edgeStyle=orthogonalEdgeStyle;rounded=0;orthogonalLoop=1;jettySize=auto;html=1;entryX=0.5;entryY=0;entryDx=0;entryDy=0;" edge="1" parent="1" source="75F8sYAHgex0go4ryfyi-82" target="75F8sYAHgex0go4ryfyi-83">
          <mxGeometry relative="1" as="geometry" />
        </mxCell>
        <mxCell id="75F8sYAHgex0go4ryfyi-82" value="Start" style="shape=offPageConnector;whiteSpace=wrap;html=1;fillColor=#f5f5f5;gradientColor=#b3b3b3;strokeColor=#666666;" vertex="1" parent="1">
          <mxGeometry x="950" y="30" width="50" height="50" as="geometry" />
        </mxCell>
        <mxCell id="75F8sYAHgex0go4ryfyi-188" value="True" style="edgeStyle=orthogonalEdgeStyle;rounded=0;orthogonalLoop=1;jettySize=auto;html=1;exitX=0.5;exitY=1;exitDx=0;exitDy=0;entryX=0.25;entryY=0;entryDx=0;entryDy=0;" edge="1" parent="1" source="75F8sYAHgex0go4ryfyi-83" target="75F8sYAHgex0go4ryfyi-103">
          <mxGeometry x="-0.9738" y="-15" relative="1" as="geometry">
            <Array as="points">
              <mxPoint x="975" y="760" />
              <mxPoint x="1137" y="760" />
            </Array>
            <mxPoint as="offset" />
          </mxGeometry>
        </mxCell>
        <mxCell id="75F8sYAHgex0go4ryfyi-316" value="False" style="edgeStyle=orthogonalEdgeStyle;rounded=0;orthogonalLoop=1;jettySize=auto;html=1;entryX=0;entryY=0.25;entryDx=0;entryDy=0;" edge="1" parent="1" source="75F8sYAHgex0go4ryfyi-83" target="75F8sYAHgex0go4ryfyi-281">
          <mxGeometry x="-0.8093" y="15" relative="1" as="geometry">
            <Array as="points">
              <mxPoint x="1080" y="165" />
              <mxPoint x="1080" y="71" />
            </Array>
            <mxPoint as="offset" />
          </mxGeometry>
        </mxCell>
        <mxCell id="75F8sYAHgex0go4ryfyi-83" value="Is user&amp;nbsp;&lt;div&gt;signed in?&lt;/div&gt;" style="rhombus;whiteSpace=wrap;html=1;fillColor=#d5e8d4;strokeColor=#82b366;" vertex="1" parent="1">
          <mxGeometry x="927.5" y="120" width="95" height="90" as="geometry" />
        </mxCell>
        <mxCell id="75F8sYAHgex0go4ryfyi-127" value="Authenticated User" style="swimlane;whiteSpace=wrap;html=1;" vertex="1" parent="1">
          <mxGeometry x="1060" y="700" width="640" height="820" as="geometry">
            <mxRectangle x="1060" y="540" width="140" height="30" as="alternateBounds" />
          </mxGeometry>
        </mxCell>
        <mxCell id="75F8sYAHgex0go4ryfyi-110" value="Revisions" style="rounded=1;whiteSpace=wrap;html=1;fillColor=#fad9d5;strokeColor=#ae4132;" vertex="1" parent="75F8sYAHgex0go4ryfyi-127">
          <mxGeometry x="510" y="187.5" width="100" height="45" as="geometry" />
        </mxCell>
        <mxCell id="75F8sYAHgex0go4ryfyi-109" value="Likes" style="rounded=1;whiteSpace=wrap;html=1;fillColor=#fad9d5;strokeColor=#ae4132;" vertex="1" parent="75F8sYAHgex0go4ryfyi-127">
          <mxGeometry x="510" y="110" width="100" height="45" as="geometry" />
        </mxCell>
        <mxCell id="75F8sYAHgex0go4ryfyi-111" value="Comments" style="rounded=1;whiteSpace=wrap;html=1;fillColor=#fad9d5;strokeColor=#ae4132;" vertex="1" parent="75F8sYAHgex0go4ryfyi-127">
          <mxGeometry x="510" y="267.5" width="100" height="45" as="geometry" />
        </mxCell>
        <mxCell id="75F8sYAHgex0go4ryfyi-123" value="Like" style="shape=singleArrow;whiteSpace=wrap;html=1;arrowWidth=1;arrowSize=0.23466601562500045;fillColor=#ffe6cc;strokeColor=#d79b00;" vertex="1" parent="75F8sYAHgex0go4ryfyi-127">
          <mxGeometry x="510" y="350" width="100" height="45" as="geometry" />
        </mxCell>
        <mxCell id="75F8sYAHgex0go4ryfyi-124" value="Comment" style="shape=singleArrow;whiteSpace=wrap;html=1;arrowWidth=1;arrowSize=0.23466601562500045;fillColor=#ffe6cc;strokeColor=#d79b00;" vertex="1" parent="75F8sYAHgex0go4ryfyi-127">
          <mxGeometry x="510" y="430" width="100" height="45" as="geometry" />
        </mxCell>
        <mxCell id="75F8sYAHgex0go4ryfyi-125" value="Follow" style="shape=singleArrow;whiteSpace=wrap;html=1;arrowWidth=1;arrowSize=0.23466601562500045;fillColor=#ffe6cc;strokeColor=#d79b00;" vertex="1" parent="75F8sYAHgex0go4ryfyi-127">
          <mxGeometry x="510" y="590" width="100" height="45" as="geometry" />
        </mxCell>
        <mxCell id="75F8sYAHgex0go4ryfyi-166" style="edgeStyle=orthogonalEdgeStyle;rounded=0;orthogonalLoop=1;jettySize=auto;html=1;entryX=0;entryY=0.5;entryDx=0;entryDy=0;" edge="1" parent="75F8sYAHgex0go4ryfyi-127" source="75F8sYAHgex0go4ryfyi-107" target="75F8sYAHgex0go4ryfyi-109">
          <mxGeometry relative="1" as="geometry" />
        </mxCell>
        <mxCell id="75F8sYAHgex0go4ryfyi-167" style="edgeStyle=orthogonalEdgeStyle;rounded=0;orthogonalLoop=1;jettySize=auto;html=1;entryX=0;entryY=0.5;entryDx=0;entryDy=0;" edge="1" parent="75F8sYAHgex0go4ryfyi-127" source="75F8sYAHgex0go4ryfyi-107" target="75F8sYAHgex0go4ryfyi-110">
          <mxGeometry relative="1" as="geometry">
            <Array as="points">
              <mxPoint x="480" y="133" />
              <mxPoint x="480" y="210" />
            </Array>
          </mxGeometry>
        </mxCell>
        <mxCell id="75F8sYAHgex0go4ryfyi-168" style="edgeStyle=orthogonalEdgeStyle;rounded=0;orthogonalLoop=1;jettySize=auto;html=1;entryX=0;entryY=0.5;entryDx=0;entryDy=0;" edge="1" parent="75F8sYAHgex0go4ryfyi-127" source="75F8sYAHgex0go4ryfyi-107" target="75F8sYAHgex0go4ryfyi-111">
          <mxGeometry relative="1" as="geometry">
            <Array as="points">
              <mxPoint x="480" y="133" />
              <mxPoint x="480" y="290" />
            </Array>
          </mxGeometry>
        </mxCell>
        <mxCell id="75F8sYAHgex0go4ryfyi-175" style="edgeStyle=orthogonalEdgeStyle;rounded=0;orthogonalLoop=1;jettySize=auto;html=1;entryX=0.5;entryY=0;entryDx=0;entryDy=0;" edge="1" parent="75F8sYAHgex0go4ryfyi-127" source="75F8sYAHgex0go4ryfyi-107" target="75F8sYAHgex0go4ryfyi-174">
          <mxGeometry relative="1" as="geometry">
            <Array as="points">
              <mxPoint x="480" y="133" />
            </Array>
          </mxGeometry>
        </mxCell>
        <mxCell id="75F8sYAHgex0go4ryfyi-107" value="Cheeps" style="rounded=1;whiteSpace=wrap;html=1;fillColor=#fad9d5;strokeColor=#ae4132;" vertex="1" parent="75F8sYAHgex0go4ryfyi-127">
          <mxGeometry x="360" y="110" width="100" height="45" as="geometry" />
        </mxCell>
        <mxCell id="75F8sYAHgex0go4ryfyi-251" style="edgeStyle=orthogonalEdgeStyle;rounded=0;orthogonalLoop=1;jettySize=auto;html=1;entryX=0;entryY=0.5;entryDx=0;entryDy=0;" edge="1" parent="75F8sYAHgex0go4ryfyi-127" source="75F8sYAHgex0go4ryfyi-106" target="75F8sYAHgex0go4ryfyi-132">
          <mxGeometry relative="1" as="geometry">
            <Array as="points">
              <mxPoint x="30" y="373" />
              <mxPoint x="30" y="533" />
            </Array>
          </mxGeometry>
        </mxCell>
        <mxCell id="75F8sYAHgex0go4ryfyi-106" value="Profile/&lt;div&gt;Private Timeline&lt;/div&gt;" style="rounded=0;whiteSpace=wrap;html=1;fillColor=#dae8fc;strokeColor=#6c8ebf;" vertex="1" parent="75F8sYAHgex0go4ryfyi-127">
          <mxGeometry x="50" y="350" width="100" height="45" as="geometry" />
        </mxCell>
        <mxCell id="75F8sYAHgex0go4ryfyi-184" style="edgeStyle=orthogonalEdgeStyle;rounded=0;orthogonalLoop=1;jettySize=auto;html=1;entryX=0;entryY=0.5;entryDx=0;entryDy=0;" edge="1" parent="75F8sYAHgex0go4ryfyi-127" source="75F8sYAHgex0go4ryfyi-105" target="75F8sYAHgex0go4ryfyi-106">
          <mxGeometry relative="1" as="geometry">
            <Array as="points">
              <mxPoint x="30" y="293" />
              <mxPoint x="30" y="373" />
            </Array>
          </mxGeometry>
        </mxCell>
        <mxCell id="75F8sYAHgex0go4ryfyi-105" value="User Timeline" style="rounded=0;whiteSpace=wrap;html=1;fillColor=#dae8fc;strokeColor=#6c8ebf;" vertex="1" parent="75F8sYAHgex0go4ryfyi-127">
          <mxGeometry x="50" y="270" width="100" height="45" as="geometry" />
        </mxCell>
        <mxCell id="75F8sYAHgex0go4ryfyi-144" style="edgeStyle=orthogonalEdgeStyle;rounded=0;orthogonalLoop=1;jettySize=auto;html=1;entryX=0;entryY=0.5;entryDx=0;entryDy=0;" edge="1" parent="75F8sYAHgex0go4ryfyi-127" source="75F8sYAHgex0go4ryfyi-104" target="75F8sYAHgex0go4ryfyi-107">
          <mxGeometry relative="1" as="geometry">
            <Array as="points">
              <mxPoint x="180" y="212" />
              <mxPoint x="180" y="144" />
              <mxPoint x="270" y="144" />
              <mxPoint x="270" y="132" />
            </Array>
          </mxGeometry>
        </mxCell>
        <mxCell id="75F8sYAHgex0go4ryfyi-154" style="edgeStyle=orthogonalEdgeStyle;rounded=0;orthogonalLoop=1;jettySize=auto;html=1;entryX=0;entryY=0.5;entryDx=0;entryDy=0;" edge="1" parent="75F8sYAHgex0go4ryfyi-127" source="75F8sYAHgex0go4ryfyi-104" target="75F8sYAHgex0go4ryfyi-153">
          <mxGeometry relative="1" as="geometry" />
        </mxCell>
        <mxCell id="75F8sYAHgex0go4ryfyi-182" style="edgeStyle=orthogonalEdgeStyle;rounded=0;orthogonalLoop=1;jettySize=auto;html=1;entryX=0;entryY=0.5;entryDx=0;entryDy=0;" edge="1" parent="75F8sYAHgex0go4ryfyi-127" source="75F8sYAHgex0go4ryfyi-104" target="75F8sYAHgex0go4ryfyi-103">
          <mxGeometry relative="1" as="geometry">
            <Array as="points">
              <mxPoint x="30" y="212" />
              <mxPoint x="30" y="132" />
            </Array>
          </mxGeometry>
        </mxCell>
        <mxCell id="75F8sYAHgex0go4ryfyi-183" style="edgeStyle=orthogonalEdgeStyle;rounded=0;orthogonalLoop=1;jettySize=auto;html=1;entryX=0;entryY=0.5;entryDx=0;entryDy=0;" edge="1" parent="75F8sYAHgex0go4ryfyi-127" source="75F8sYAHgex0go4ryfyi-104" target="75F8sYAHgex0go4ryfyi-105">
          <mxGeometry relative="1" as="geometry">
            <Array as="points">
              <mxPoint x="30" y="212" />
              <mxPoint x="30" y="292" />
            </Array>
          </mxGeometry>
        </mxCell>
        <mxCell id="75F8sYAHgex0go4ryfyi-104" value="Search" style="rounded=0;whiteSpace=wrap;html=1;fillColor=#dae8fc;strokeColor=#6c8ebf;" vertex="1" parent="75F8sYAHgex0go4ryfyi-127">
          <mxGeometry x="52.5" y="190" width="100" height="45" as="geometry" />
        </mxCell>
        <mxCell id="75F8sYAHgex0go4ryfyi-145" style="edgeStyle=orthogonalEdgeStyle;rounded=0;orthogonalLoop=1;jettySize=auto;html=1;entryX=0;entryY=0.25;entryDx=0;entryDy=0;" edge="1" parent="75F8sYAHgex0go4ryfyi-127" source="75F8sYAHgex0go4ryfyi-103" target="75F8sYAHgex0go4ryfyi-107">
          <mxGeometry relative="1" as="geometry" />
        </mxCell>
        <mxCell id="75F8sYAHgex0go4ryfyi-181" style="edgeStyle=orthogonalEdgeStyle;rounded=0;orthogonalLoop=1;jettySize=auto;html=1;entryX=0;entryY=0.5;entryDx=0;entryDy=0;" edge="1" parent="75F8sYAHgex0go4ryfyi-127" source="75F8sYAHgex0go4ryfyi-103" target="75F8sYAHgex0go4ryfyi-104">
          <mxGeometry relative="1" as="geometry">
            <Array as="points">
              <mxPoint x="30" y="132" />
              <mxPoint x="30" y="212" />
            </Array>
          </mxGeometry>
        </mxCell>
        <mxCell id="75F8sYAHgex0go4ryfyi-103" value="Public Timeline" style="rounded=0;whiteSpace=wrap;html=1;fillColor=#dae8fc;strokeColor=#6c8ebf;" vertex="1" parent="75F8sYAHgex0go4ryfyi-127">
          <mxGeometry x="52.5" y="110" width="100" height="45" as="geometry" />
        </mxCell>
        <mxCell id="75F8sYAHgex0go4ryfyi-128" value="Edit" style="shape=singleArrow;whiteSpace=wrap;html=1;arrowWidth=1;arrowSize=0.23466601562500045;fillColor=#ffe6cc;strokeColor=#d79b00;" vertex="1" parent="75F8sYAHgex0go4ryfyi-127">
          <mxGeometry x="510" y="672.5" width="100" height="45" as="geometry" />
        </mxCell>
        <mxCell id="75F8sYAHgex0go4ryfyi-131" value="Download&lt;div&gt;Personal&lt;/div&gt;&lt;div&gt;Data&lt;/div&gt;" style="shape=singleArrow;whiteSpace=wrap;html=1;arrowWidth=1;arrowSize=0.23466601562500045;fillColor=#ffe6cc;strokeColor=#d79b00;" vertex="1" parent="75F8sYAHgex0go4ryfyi-127">
          <mxGeometry x="215" y="590" width="100" height="45" as="geometry" />
        </mxCell>
        <mxCell id="75F8sYAHgex0go4ryfyi-132" value="Settings" style="rounded=0;whiteSpace=wrap;html=1;fillColor=#dae8fc;strokeColor=#6c8ebf;" vertex="1" parent="75F8sYAHgex0go4ryfyi-127">
          <mxGeometry x="50" y="510" width="100" height="45" as="geometry" />
        </mxCell>
        <mxCell id="75F8sYAHgex0go4ryfyi-133" value="Write Cheep" style="shape=singleArrow;whiteSpace=wrap;html=1;arrowWidth=1;arrowSize=0.23466601562500045;fillColor=#ffe6cc;strokeColor=#d79b00;" vertex="1" parent="75F8sYAHgex0go4ryfyi-127">
          <mxGeometry x="215" y="50" width="100" height="45" as="geometry" />
        </mxCell>
        <mxCell id="75F8sYAHgex0go4ryfyi-156" style="edgeStyle=orthogonalEdgeStyle;rounded=0;orthogonalLoop=1;jettySize=auto;html=1;entryX=0;entryY=0.75;entryDx=0;entryDy=0;" edge="1" parent="75F8sYAHgex0go4ryfyi-127" target="75F8sYAHgex0go4ryfyi-107">
          <mxGeometry relative="1" as="geometry">
            <mxPoint x="315" y="292.53333333333353" as="sourcePoint" />
          </mxGeometry>
        </mxCell>
        <mxCell id="75F8sYAHgex0go4ryfyi-157" style="edgeStyle=orthogonalEdgeStyle;rounded=0;orthogonalLoop=1;jettySize=auto;html=1;entryX=0;entryY=0.75;entryDx=0;entryDy=0;" edge="1" parent="75F8sYAHgex0go4ryfyi-127" target="75F8sYAHgex0go4ryfyi-107">
          <mxGeometry relative="1" as="geometry">
            <mxPoint x="315" y="372.53333333333353" as="sourcePoint" />
          </mxGeometry>
        </mxCell>
        <mxCell id="75F8sYAHgex0go4ryfyi-158" style="edgeStyle=orthogonalEdgeStyle;rounded=0;orthogonalLoop=1;jettySize=auto;html=1;entryX=0;entryY=0.75;entryDx=0;entryDy=0;" edge="1" parent="75F8sYAHgex0go4ryfyi-127" target="75F8sYAHgex0go4ryfyi-107">
          <mxGeometry relative="1" as="geometry">
            <mxPoint x="315" y="455" as="sourcePoint" />
          </mxGeometry>
        </mxCell>
        <mxCell id="75F8sYAHgex0go4ryfyi-143" style="edgeStyle=orthogonalEdgeStyle;rounded=0;orthogonalLoop=1;jettySize=auto;html=1;entryX=0;entryY=0.5;entryDx=0;entryDy=0;entryPerimeter=0;" edge="1" parent="75F8sYAHgex0go4ryfyi-127" source="75F8sYAHgex0go4ryfyi-103" target="75F8sYAHgex0go4ryfyi-133">
          <mxGeometry relative="1" as="geometry">
            <Array as="points">
              <mxPoint x="184" y="133" />
              <mxPoint x="184" y="73" />
              <mxPoint x="215" y="73" />
            </Array>
          </mxGeometry>
        </mxCell>
        <mxCell id="75F8sYAHgex0go4ryfyi-155" style="edgeStyle=orthogonalEdgeStyle;rounded=0;orthogonalLoop=1;jettySize=auto;html=1;entryX=0;entryY=0.75;entryDx=0;entryDy=0;" edge="1" parent="75F8sYAHgex0go4ryfyi-127" source="75F8sYAHgex0go4ryfyi-153" target="75F8sYAHgex0go4ryfyi-107">
          <mxGeometry relative="1" as="geometry">
            <mxPoint x="350" y="180" as="targetPoint" />
          </mxGeometry>
        </mxCell>
        <mxCell id="75F8sYAHgex0go4ryfyi-153" value="Author" style="rounded=1;whiteSpace=wrap;html=1;fillColor=#fad9d5;strokeColor=#ae4132;" vertex="1" parent="75F8sYAHgex0go4ryfyi-127">
          <mxGeometry x="215" y="190" width="100" height="45" as="geometry" />
        </mxCell>
        <mxCell id="75F8sYAHgex0go4ryfyi-159" value="Change Profile&lt;div&gt;Picture&lt;/div&gt;" style="shape=singleArrow;whiteSpace=wrap;html=1;arrowWidth=1;arrowSize=0.23466601562500045;fillColor=#ffe6cc;strokeColor=#d79b00;" vertex="1" parent="75F8sYAHgex0go4ryfyi-127">
          <mxGeometry x="215" y="510" width="100" height="45" as="geometry" />
        </mxCell>
        <mxCell id="75F8sYAHgex0go4ryfyi-160" style="edgeStyle=orthogonalEdgeStyle;rounded=0;orthogonalLoop=1;jettySize=auto;html=1;entryX=0;entryY=0.5;entryDx=0;entryDy=0;entryPerimeter=0;" edge="1" parent="75F8sYAHgex0go4ryfyi-127" source="75F8sYAHgex0go4ryfyi-132" target="75F8sYAHgex0go4ryfyi-159">
          <mxGeometry relative="1" as="geometry" />
        </mxCell>
        <mxCell id="75F8sYAHgex0go4ryfyi-161" value="Delete&lt;div&gt;Personal&lt;/div&gt;&lt;div&gt;Data&lt;/div&gt;" style="shape=singleArrow;whiteSpace=wrap;html=1;arrowWidth=1;arrowSize=0.23466601562500045;fillColor=#ffe6cc;strokeColor=#d79b00;" vertex="1" parent="75F8sYAHgex0go4ryfyi-127">
          <mxGeometry x="215" y="670" width="100" height="45" as="geometry" />
        </mxCell>
        <mxCell id="75F8sYAHgex0go4ryfyi-163" style="edgeStyle=orthogonalEdgeStyle;rounded=0;orthogonalLoop=1;jettySize=auto;html=1;entryX=0;entryY=0.5;entryDx=0;entryDy=0;entryPerimeter=0;" edge="1" parent="75F8sYAHgex0go4ryfyi-127" source="75F8sYAHgex0go4ryfyi-132" target="75F8sYAHgex0go4ryfyi-131">
          <mxGeometry relative="1" as="geometry" />
        </mxCell>
        <mxCell id="75F8sYAHgex0go4ryfyi-164" style="edgeStyle=orthogonalEdgeStyle;rounded=0;orthogonalLoop=1;jettySize=auto;html=1;entryX=0;entryY=0.5;entryDx=0;entryDy=0;entryPerimeter=0;" edge="1" parent="75F8sYAHgex0go4ryfyi-127" source="75F8sYAHgex0go4ryfyi-132" target="75F8sYAHgex0go4ryfyi-161">
          <mxGeometry relative="1" as="geometry" />
        </mxCell>
        <mxCell id="75F8sYAHgex0go4ryfyi-165" value="Logout" style="shape=singleArrow;whiteSpace=wrap;html=1;arrowWidth=1;arrowSize=0.23466601562500045;fillColor=#ffe6cc;strokeColor=#d79b00;" vertex="1" parent="75F8sYAHgex0go4ryfyi-127">
          <mxGeometry x="52.5" y="750" width="100" height="45" as="geometry" />
        </mxCell>
        <mxCell id="75F8sYAHgex0go4ryfyi-174" value="Is owner&lt;div&gt;of cheep&lt;/div&gt;" style="rhombus;whiteSpace=wrap;html=1;fillColor=#d5e8d4;strokeColor=#82b366;" vertex="1" parent="75F8sYAHgex0go4ryfyi-127">
          <mxGeometry x="440" y="492.5" width="80" height="80" as="geometry" />
        </mxCell>
        <mxCell id="75F8sYAHgex0go4ryfyi-176" style="edgeStyle=orthogonalEdgeStyle;rounded=0;orthogonalLoop=1;jettySize=auto;html=1;entryX=0;entryY=0.5;entryDx=0;entryDy=0;entryPerimeter=0;" edge="1" parent="75F8sYAHgex0go4ryfyi-127" source="75F8sYAHgex0go4ryfyi-174" target="75F8sYAHgex0go4ryfyi-123">
          <mxGeometry relative="1" as="geometry" />
        </mxCell>
        <mxCell id="75F8sYAHgex0go4ryfyi-179" value="False" style="edgeStyle=orthogonalEdgeStyle;rounded=0;orthogonalLoop=1;jettySize=auto;html=1;entryX=0;entryY=0.5;entryDx=0;entryDy=0;entryPerimeter=0;exitX=1;exitY=0.5;exitDx=0;exitDy=0;" edge="1" parent="75F8sYAHgex0go4ryfyi-127" source="75F8sYAHgex0go4ryfyi-174" target="75F8sYAHgex0go4ryfyi-125">
          <mxGeometry x="-0.8826" y="13" relative="1" as="geometry">
            <Array as="points">
              <mxPoint x="540" y="533" />
              <mxPoint x="540" y="580" />
              <mxPoint x="490" y="580" />
              <mxPoint x="490" y="613" />
            </Array>
            <mxPoint as="offset" />
          </mxGeometry>
        </mxCell>
        <mxCell id="75F8sYAHgex0go4ryfyi-180" value="True" style="edgeStyle=orthogonalEdgeStyle;rounded=0;orthogonalLoop=1;jettySize=auto;html=1;entryX=0;entryY=0.5;entryDx=0;entryDy=0;entryPerimeter=0;" edge="1" parent="75F8sYAHgex0go4ryfyi-127" source="75F8sYAHgex0go4ryfyi-174" target="75F8sYAHgex0go4ryfyi-128">
          <mxGeometry x="-0.7705" y="-20" relative="1" as="geometry">
            <mxPoint as="offset" />
          </mxGeometry>
        </mxCell>
        <mxCell id="75F8sYAHgex0go4ryfyi-189" style="edgeStyle=orthogonalEdgeStyle;rounded=0;orthogonalLoop=1;jettySize=auto;html=1;entryX=0;entryY=0.5;entryDx=0;entryDy=0;entryPerimeter=0;" edge="1" parent="75F8sYAHgex0go4ryfyi-127" source="75F8sYAHgex0go4ryfyi-106" target="75F8sYAHgex0go4ryfyi-165">
          <mxGeometry relative="1" as="geometry">
            <Array as="points">
              <mxPoint x="30" y="372" />
              <mxPoint x="30" y="772" />
            </Array>
          </mxGeometry>
        </mxCell>
        <mxCell id="75F8sYAHgex0go4ryfyi-336" value="Liked" style="shape=singleArrow;whiteSpace=wrap;html=1;arrowWidth=1;arrowSize=0.23466601562500045;fillColor=#ffe6cc;strokeColor=#d79b00;" vertex="1" parent="75F8sYAHgex0go4ryfyi-127">
          <mxGeometry x="215" y="350" width="100" height="45" as="geometry" />
        </mxCell>
        <mxCell id="75F8sYAHgex0go4ryfyi-337" value="Comments" style="shape=singleArrow;whiteSpace=wrap;html=1;arrowWidth=1;arrowSize=0.23466601562500045;fillColor=#ffe6cc;strokeColor=#d79b00;" vertex="1" parent="75F8sYAHgex0go4ryfyi-127">
          <mxGeometry x="215" y="432.5" width="100" height="45" as="geometry" />
        </mxCell>
        <mxCell id="75F8sYAHgex0go4ryfyi-338" value="Users Cheeps/&lt;div&gt;Personal&amp;nbsp;&lt;/div&gt;&lt;div&gt;Timeline&lt;/div&gt;" style="shape=singleArrow;whiteSpace=wrap;html=1;arrowWidth=1;arrowSize=0.23466601562500045;fillColor=#ffe6cc;strokeColor=#d79b00;fontSize=11;" vertex="1" parent="75F8sYAHgex0go4ryfyi-127">
          <mxGeometry x="215" y="270" width="100" height="45" as="geometry" />
        </mxCell>
        <mxCell id="75F8sYAHgex0go4ryfyi-339" style="edgeStyle=orthogonalEdgeStyle;rounded=0;orthogonalLoop=1;jettySize=auto;html=1;entryX=0;entryY=0.5;entryDx=0;entryDy=0;entryPerimeter=0;" edge="1" parent="75F8sYAHgex0go4ryfyi-127" source="75F8sYAHgex0go4ryfyi-105" target="75F8sYAHgex0go4ryfyi-338">
          <mxGeometry relative="1" as="geometry" />
        </mxCell>
        <mxCell id="75F8sYAHgex0go4ryfyi-340" style="edgeStyle=orthogonalEdgeStyle;rounded=0;orthogonalLoop=1;jettySize=auto;html=1;entryX=0;entryY=0.5;entryDx=0;entryDy=0;entryPerimeter=0;" edge="1" parent="75F8sYAHgex0go4ryfyi-127" source="75F8sYAHgex0go4ryfyi-105" target="75F8sYAHgex0go4ryfyi-336">
          <mxGeometry relative="1" as="geometry" />
        </mxCell>
        <mxCell id="75F8sYAHgex0go4ryfyi-341" style="edgeStyle=orthogonalEdgeStyle;rounded=0;orthogonalLoop=1;jettySize=auto;html=1;entryX=0;entryY=0.5;entryDx=0;entryDy=0;entryPerimeter=0;" edge="1" parent="75F8sYAHgex0go4ryfyi-127" source="75F8sYAHgex0go4ryfyi-105" target="75F8sYAHgex0go4ryfyi-337">
          <mxGeometry relative="1" as="geometry" />
        </mxCell>
        <mxCell id="75F8sYAHgex0go4ryfyi-342" style="edgeStyle=orthogonalEdgeStyle;rounded=0;orthogonalLoop=1;jettySize=auto;html=1;entryX=0;entryY=0.5;entryDx=0;entryDy=0;entryPerimeter=0;" edge="1" parent="75F8sYAHgex0go4ryfyi-127" source="75F8sYAHgex0go4ryfyi-106" target="75F8sYAHgex0go4ryfyi-336">
          <mxGeometry relative="1" as="geometry" />
        </mxCell>
        <mxCell id="75F8sYAHgex0go4ryfyi-345" style="edgeStyle=orthogonalEdgeStyle;rounded=0;orthogonalLoop=1;jettySize=auto;html=1;entryX=0;entryY=0.5;entryDx=0;entryDy=0;entryPerimeter=0;" edge="1" parent="75F8sYAHgex0go4ryfyi-127" source="75F8sYAHgex0go4ryfyi-107" target="75F8sYAHgex0go4ryfyi-124">
          <mxGeometry relative="1" as="geometry">
            <Array as="points">
              <mxPoint x="480" y="133" />
              <mxPoint x="480" y="453" />
            </Array>
          </mxGeometry>
        </mxCell>
        <mxCell id="75F8sYAHgex0go4ryfyi-346" style="edgeStyle=orthogonalEdgeStyle;rounded=0;orthogonalLoop=1;jettySize=auto;html=1;entryX=-0.007;entryY=0.779;entryDx=0;entryDy=0;entryPerimeter=0;" edge="1" parent="75F8sYAHgex0go4ryfyi-127" source="75F8sYAHgex0go4ryfyi-106" target="75F8sYAHgex0go4ryfyi-133">
          <mxGeometry relative="1" as="geometry">
            <Array as="points">
              <mxPoint x="170" y="373" />
              <mxPoint x="170" y="85" />
            </Array>
          </mxGeometry>
        </mxCell>
        <mxCell id="75F8sYAHgex0go4ryfyi-252" value="Non Authenticated User" style="swimlane;whiteSpace=wrap;html=1;" vertex="1" parent="1">
          <mxGeometry x="1060" y="10" width="640" height="620" as="geometry">
            <mxRectangle x="1060" y="540" width="140" height="30" as="alternateBounds" />
          </mxGeometry>
        </mxCell>
        <mxCell id="75F8sYAHgex0go4ryfyi-253" value="Revisions" style="rounded=1;whiteSpace=wrap;html=1;fillColor=#fad9d5;strokeColor=#ae4132;" vertex="1" parent="75F8sYAHgex0go4ryfyi-252">
          <mxGeometry x="510" y="127.5" width="100" height="45" as="geometry" />
        </mxCell>
        <mxCell id="75F8sYAHgex0go4ryfyi-254" value="Likes" style="rounded=1;whiteSpace=wrap;html=1;fillColor=#fad9d5;strokeColor=#ae4132;" vertex="1" parent="75F8sYAHgex0go4ryfyi-252">
          <mxGeometry x="510" y="50" width="100" height="45" as="geometry" />
        </mxCell>
        <mxCell id="75F8sYAHgex0go4ryfyi-255" value="Comments" style="rounded=1;whiteSpace=wrap;html=1;fillColor=#fad9d5;strokeColor=#ae4132;" vertex="1" parent="75F8sYAHgex0go4ryfyi-252">
          <mxGeometry x="510" y="207.5" width="100" height="45" as="geometry" />
        </mxCell>
        <mxCell id="75F8sYAHgex0go4ryfyi-259" style="edgeStyle=orthogonalEdgeStyle;rounded=0;orthogonalLoop=1;jettySize=auto;html=1;entryX=0;entryY=0.5;entryDx=0;entryDy=0;" edge="1" parent="75F8sYAHgex0go4ryfyi-252" source="75F8sYAHgex0go4ryfyi-263" target="75F8sYAHgex0go4ryfyi-254">
          <mxGeometry relative="1" as="geometry" />
        </mxCell>
        <mxCell id="75F8sYAHgex0go4ryfyi-260" style="edgeStyle=orthogonalEdgeStyle;rounded=0;orthogonalLoop=1;jettySize=auto;html=1;entryX=0;entryY=0.5;entryDx=0;entryDy=0;" edge="1" parent="75F8sYAHgex0go4ryfyi-252" source="75F8sYAHgex0go4ryfyi-263" target="75F8sYAHgex0go4ryfyi-253">
          <mxGeometry relative="1" as="geometry">
            <Array as="points">
              <mxPoint x="480" y="73" />
              <mxPoint x="480" y="150" />
            </Array>
          </mxGeometry>
        </mxCell>
        <mxCell id="75F8sYAHgex0go4ryfyi-261" style="edgeStyle=orthogonalEdgeStyle;rounded=0;orthogonalLoop=1;jettySize=auto;html=1;entryX=0;entryY=0.5;entryDx=0;entryDy=0;" edge="1" parent="75F8sYAHgex0go4ryfyi-252" source="75F8sYAHgex0go4ryfyi-263" target="75F8sYAHgex0go4ryfyi-255">
          <mxGeometry relative="1" as="geometry">
            <Array as="points">
              <mxPoint x="480" y="73" />
              <mxPoint x="480" y="230" />
            </Array>
          </mxGeometry>
        </mxCell>
        <mxCell id="75F8sYAHgex0go4ryfyi-263" value="Cheeps" style="rounded=1;whiteSpace=wrap;html=1;fillColor=#fad9d5;strokeColor=#ae4132;" vertex="1" parent="75F8sYAHgex0go4ryfyi-252">
          <mxGeometry x="360" y="50" width="100" height="45" as="geometry" />
        </mxCell>
        <mxCell id="75F8sYAHgex0go4ryfyi-311" style="edgeStyle=orthogonalEdgeStyle;rounded=0;orthogonalLoop=1;jettySize=auto;html=1;entryX=0;entryY=0.5;entryDx=0;entryDy=0;" edge="1" parent="75F8sYAHgex0go4ryfyi-252" source="75F8sYAHgex0go4ryfyi-273" target="75F8sYAHgex0go4ryfyi-307">
          <mxGeometry relative="1" as="geometry">
            <Array as="points">
              <mxPoint x="30" y="233" />
              <mxPoint x="30" y="483" />
            </Array>
          </mxGeometry>
        </mxCell>
        <mxCell id="75F8sYAHgex0go4ryfyi-273" value="User Timeline" style="rounded=0;whiteSpace=wrap;html=1;fillColor=#dae8fc;strokeColor=#6c8ebf;" vertex="1" parent="75F8sYAHgex0go4ryfyi-252">
          <mxGeometry x="50" y="210" width="100" height="45" as="geometry" />
        </mxCell>
        <mxCell id="75F8sYAHgex0go4ryfyi-274" style="edgeStyle=orthogonalEdgeStyle;rounded=0;orthogonalLoop=1;jettySize=auto;html=1;entryX=0;entryY=0.5;entryDx=0;entryDy=0;" edge="1" parent="75F8sYAHgex0go4ryfyi-252" source="75F8sYAHgex0go4ryfyi-278" target="75F8sYAHgex0go4ryfyi-263">
          <mxGeometry relative="1" as="geometry">
            <Array as="points">
              <mxPoint x="180" y="152" />
              <mxPoint x="180" y="84" />
              <mxPoint x="270" y="84" />
              <mxPoint x="270" y="72" />
            </Array>
          </mxGeometry>
        </mxCell>
        <mxCell id="75F8sYAHgex0go4ryfyi-275" style="edgeStyle=orthogonalEdgeStyle;rounded=0;orthogonalLoop=1;jettySize=auto;html=1;entryX=0;entryY=0.5;entryDx=0;entryDy=0;" edge="1" parent="75F8sYAHgex0go4ryfyi-252" source="75F8sYAHgex0go4ryfyi-278" target="75F8sYAHgex0go4ryfyi-294">
          <mxGeometry relative="1" as="geometry" />
        </mxCell>
        <mxCell id="75F8sYAHgex0go4ryfyi-276" style="edgeStyle=orthogonalEdgeStyle;rounded=0;orthogonalLoop=1;jettySize=auto;html=1;entryX=0;entryY=0.5;entryDx=0;entryDy=0;" edge="1" parent="75F8sYAHgex0go4ryfyi-252" source="75F8sYAHgex0go4ryfyi-278" target="75F8sYAHgex0go4ryfyi-281">
          <mxGeometry relative="1" as="geometry">
            <Array as="points">
              <mxPoint x="30" y="152" />
              <mxPoint x="30" y="72" />
            </Array>
          </mxGeometry>
        </mxCell>
        <mxCell id="75F8sYAHgex0go4ryfyi-277" style="edgeStyle=orthogonalEdgeStyle;rounded=0;orthogonalLoop=1;jettySize=auto;html=1;entryX=0;entryY=0.5;entryDx=0;entryDy=0;" edge="1" parent="75F8sYAHgex0go4ryfyi-252" source="75F8sYAHgex0go4ryfyi-278" target="75F8sYAHgex0go4ryfyi-273">
          <mxGeometry relative="1" as="geometry">
            <Array as="points">
              <mxPoint x="30" y="152" />
              <mxPoint x="30" y="232" />
            </Array>
          </mxGeometry>
        </mxCell>
        <mxCell id="75F8sYAHgex0go4ryfyi-278" value="Search" style="rounded=0;whiteSpace=wrap;html=1;fillColor=#dae8fc;strokeColor=#6c8ebf;" vertex="1" parent="75F8sYAHgex0go4ryfyi-252">
          <mxGeometry x="52.5" y="130" width="100" height="45" as="geometry" />
        </mxCell>
        <mxCell id="75F8sYAHgex0go4ryfyi-279" style="edgeStyle=orthogonalEdgeStyle;rounded=0;orthogonalLoop=1;jettySize=auto;html=1;entryX=0;entryY=0.25;entryDx=0;entryDy=0;" edge="1" parent="75F8sYAHgex0go4ryfyi-252" source="75F8sYAHgex0go4ryfyi-281" target="75F8sYAHgex0go4ryfyi-263">
          <mxGeometry relative="1" as="geometry" />
        </mxCell>
        <mxCell id="75F8sYAHgex0go4ryfyi-280" style="edgeStyle=orthogonalEdgeStyle;rounded=0;orthogonalLoop=1;jettySize=auto;html=1;entryX=0;entryY=0.5;entryDx=0;entryDy=0;" edge="1" parent="75F8sYAHgex0go4ryfyi-252" source="75F8sYAHgex0go4ryfyi-281" target="75F8sYAHgex0go4ryfyi-278">
          <mxGeometry relative="1" as="geometry">
            <Array as="points">
              <mxPoint x="30" y="72" />
              <mxPoint x="30" y="152" />
            </Array>
          </mxGeometry>
        </mxCell>
        <mxCell id="75F8sYAHgex0go4ryfyi-281" value="Public Timeline" style="rounded=0;whiteSpace=wrap;html=1;fillColor=#dae8fc;strokeColor=#6c8ebf;" vertex="1" parent="75F8sYAHgex0go4ryfyi-252">
          <mxGeometry x="52.5" y="50" width="100" height="45" as="geometry" />
        </mxCell>
        <mxCell id="75F8sYAHgex0go4ryfyi-286" style="edgeStyle=orthogonalEdgeStyle;rounded=0;orthogonalLoop=1;jettySize=auto;html=1;entryX=0;entryY=0.75;entryDx=0;entryDy=0;" edge="1" parent="75F8sYAHgex0go4ryfyi-252" target="75F8sYAHgex0go4ryfyi-263">
          <mxGeometry relative="1" as="geometry">
            <mxPoint x="314.9999999999998" y="232.47826086956525" as="sourcePoint" />
            <Array as="points">
              <mxPoint x="340" y="232" />
              <mxPoint x="340" y="84" />
            </Array>
          </mxGeometry>
        </mxCell>
        <mxCell id="75F8sYAHgex0go4ryfyi-288" style="edgeStyle=orthogonalEdgeStyle;rounded=0;orthogonalLoop=1;jettySize=auto;html=1;entryX=0;entryY=0.75;entryDx=0;entryDy=0;" edge="1" parent="75F8sYAHgex0go4ryfyi-252" target="75F8sYAHgex0go4ryfyi-263">
          <mxGeometry relative="1" as="geometry">
            <mxPoint x="314.9999999999998" y="312.47826086956525" as="sourcePoint" />
            <Array as="points">
              <mxPoint x="340" y="312" />
              <mxPoint x="340" y="84" />
            </Array>
          </mxGeometry>
        </mxCell>
        <mxCell id="75F8sYAHgex0go4ryfyi-290" style="edgeStyle=orthogonalEdgeStyle;rounded=0;orthogonalLoop=1;jettySize=auto;html=1;entryX=0;entryY=0.75;entryDx=0;entryDy=0;exitX=1;exitY=0.5;exitDx=0;exitDy=0;exitPerimeter=0;" edge="1" parent="75F8sYAHgex0go4ryfyi-252" source="75F8sYAHgex0go4ryfyi-325" target="75F8sYAHgex0go4ryfyi-263">
          <mxGeometry relative="1" as="geometry">
            <mxPoint x="315" y="394.9999999999999" as="sourcePoint" />
            <Array as="points">
              <mxPoint x="340" y="392" />
              <mxPoint x="340" y="84" />
            </Array>
          </mxGeometry>
        </mxCell>
        <mxCell id="75F8sYAHgex0go4ryfyi-293" style="edgeStyle=orthogonalEdgeStyle;rounded=0;orthogonalLoop=1;jettySize=auto;html=1;entryX=0;entryY=0.75;entryDx=0;entryDy=0;" edge="1" parent="75F8sYAHgex0go4ryfyi-252" source="75F8sYAHgex0go4ryfyi-294" target="75F8sYAHgex0go4ryfyi-263">
          <mxGeometry relative="1" as="geometry">
            <mxPoint x="350" y="120" as="targetPoint" />
            <Array as="points">
              <mxPoint x="340" y="152" />
              <mxPoint x="340" y="84" />
            </Array>
          </mxGeometry>
        </mxCell>
        <mxCell id="75F8sYAHgex0go4ryfyi-294" value="Author" style="rounded=1;whiteSpace=wrap;html=1;fillColor=#fad9d5;strokeColor=#ae4132;" vertex="1" parent="75F8sYAHgex0go4ryfyi-252">
          <mxGeometry x="215" y="130" width="100" height="45" as="geometry" />
        </mxCell>
        <mxCell id="75F8sYAHgex0go4ryfyi-322" style="edgeStyle=orthogonalEdgeStyle;rounded=0;orthogonalLoop=1;jettySize=auto;html=1;entryX=0;entryY=0.5;entryDx=0;entryDy=0;" edge="1" parent="75F8sYAHgex0go4ryfyi-252" source="75F8sYAHgex0go4ryfyi-300" target="75F8sYAHgex0go4ryfyi-320">
          <mxGeometry relative="1" as="geometry" />
        </mxCell>
        <mxCell id="75F8sYAHgex0go4ryfyi-300" value="GitHub" style="shape=singleArrow;whiteSpace=wrap;html=1;arrowWidth=1;arrowSize=0.23466601562500045;fillColor=#ffe6cc;strokeColor=#d79b00;" vertex="1" parent="75F8sYAHgex0go4ryfyi-252">
          <mxGeometry x="215" y="460" width="100" height="45" as="geometry" />
        </mxCell>
        <mxCell id="75F8sYAHgex0go4ryfyi-312" style="edgeStyle=orthogonalEdgeStyle;rounded=0;orthogonalLoop=1;jettySize=auto;html=1;entryX=0;entryY=0.5;entryDx=0;entryDy=0;" edge="1" parent="75F8sYAHgex0go4ryfyi-252" source="75F8sYAHgex0go4ryfyi-307" target="75F8sYAHgex0go4ryfyi-309">
          <mxGeometry relative="1" as="geometry">
            <Array as="points">
              <mxPoint x="30" y="483" />
              <mxPoint x="30" y="573" />
              <mxPoint x="33" y="573" />
            </Array>
          </mxGeometry>
        </mxCell>
        <mxCell id="75F8sYAHgex0go4ryfyi-307" value="Login" style="rounded=0;whiteSpace=wrap;html=1;fillColor=#dae8fc;strokeColor=#6c8ebf;" vertex="1" parent="75F8sYAHgex0go4ryfyi-252">
          <mxGeometry x="52.5" y="460" width="100" height="45" as="geometry" />
        </mxCell>
        <mxCell id="75F8sYAHgex0go4ryfyi-309" value="Register" style="rounded=0;whiteSpace=wrap;html=1;fillColor=#dae8fc;strokeColor=#6c8ebf;" vertex="1" parent="75F8sYAHgex0go4ryfyi-252">
          <mxGeometry x="52.5" y="550" width="100" height="45" as="geometry" />
        </mxCell>
        <mxCell id="75F8sYAHgex0go4ryfyi-321" style="edgeStyle=orthogonalEdgeStyle;rounded=0;orthogonalLoop=1;jettySize=auto;html=1;entryX=0;entryY=0.5;entryDx=0;entryDy=0;" edge="1" parent="75F8sYAHgex0go4ryfyi-252" source="75F8sYAHgex0go4ryfyi-310" target="75F8sYAHgex0go4ryfyi-320">
          <mxGeometry relative="1" as="geometry" />
        </mxCell>
        <mxCell id="75F8sYAHgex0go4ryfyi-310" value="Generic&lt;div&gt;Sign In/Up&lt;/div&gt;" style="shape=singleArrow;whiteSpace=wrap;html=1;arrowWidth=1;arrowSize=0.23466601562500045;fillColor=#ffe6cc;strokeColor=#d79b00;" vertex="1" parent="75F8sYAHgex0go4ryfyi-252">
          <mxGeometry x="215" y="550" width="100" height="45" as="geometry" />
        </mxCell>
        <mxCell id="75F8sYAHgex0go4ryfyi-313" style="edgeStyle=orthogonalEdgeStyle;rounded=0;orthogonalLoop=1;jettySize=auto;html=1;entryX=0;entryY=0.5;entryDx=0;entryDy=0;entryPerimeter=0;" edge="1" parent="75F8sYAHgex0go4ryfyi-252" source="75F8sYAHgex0go4ryfyi-307" target="75F8sYAHgex0go4ryfyi-300">
          <mxGeometry relative="1" as="geometry" />
        </mxCell>
        <mxCell id="75F8sYAHgex0go4ryfyi-314" style="edgeStyle=orthogonalEdgeStyle;rounded=0;orthogonalLoop=1;jettySize=auto;html=1;entryX=0;entryY=0.5;entryDx=0;entryDy=0;entryPerimeter=0;" edge="1" parent="75F8sYAHgex0go4ryfyi-252" source="75F8sYAHgex0go4ryfyi-309" target="75F8sYAHgex0go4ryfyi-310">
          <mxGeometry relative="1" as="geometry" />
        </mxCell>
        <mxCell id="75F8sYAHgex0go4ryfyi-315" style="edgeStyle=orthogonalEdgeStyle;rounded=0;orthogonalLoop=1;jettySize=auto;html=1;entryX=0;entryY=0.5;entryDx=0;entryDy=0;entryPerimeter=0;" edge="1" parent="75F8sYAHgex0go4ryfyi-252" source="75F8sYAHgex0go4ryfyi-309" target="75F8sYAHgex0go4ryfyi-300">
          <mxGeometry relative="1" as="geometry" />
        </mxCell>
        <mxCell id="75F8sYAHgex0go4ryfyi-323" value="False" style="edgeStyle=orthogonalEdgeStyle;rounded=0;orthogonalLoop=1;jettySize=auto;html=1;entryX=0.5;entryY=1;entryDx=0;entryDy=0;" edge="1" parent="75F8sYAHgex0go4ryfyi-252" source="75F8sYAHgex0go4ryfyi-320" target="75F8sYAHgex0go4ryfyi-309">
          <mxGeometry x="-0.9429" y="-18" relative="1" as="geometry">
            <Array as="points">
              <mxPoint x="408" y="610" />
              <mxPoint x="103" y="610" />
            </Array>
            <mxPoint as="offset" />
          </mxGeometry>
        </mxCell>
        <mxCell id="75F8sYAHgex0go4ryfyi-320" value="Valid&lt;div&gt;Credentials&lt;/div&gt;" style="rhombus;whiteSpace=wrap;html=1;fillColor=#d5e8d4;strokeColor=#82b366;" vertex="1" parent="75F8sYAHgex0go4ryfyi-252">
          <mxGeometry x="360" y="480" width="95" height="100" as="geometry" />
        </mxCell>
        <mxCell id="75F8sYAHgex0go4ryfyi-325" value="Comments" style="shape=singleArrow;whiteSpace=wrap;html=1;arrowWidth=1;arrowSize=0.23466601562500045;fillColor=#ffe6cc;strokeColor=#d79b00;" vertex="1" parent="75F8sYAHgex0go4ryfyi-252">
          <mxGeometry x="215" y="370" width="100" height="45" as="geometry" />
        </mxCell>
        <mxCell id="75F8sYAHgex0go4ryfyi-326" value="Liked" style="shape=singleArrow;whiteSpace=wrap;html=1;arrowWidth=1;arrowSize=0.23466601562500045;fillColor=#ffe6cc;strokeColor=#d79b00;" vertex="1" parent="75F8sYAHgex0go4ryfyi-252">
          <mxGeometry x="215" y="290" width="100" height="45" as="geometry" />
        </mxCell>
        <mxCell id="75F8sYAHgex0go4ryfyi-327" value="Users Cheeps" style="shape=singleArrow;whiteSpace=wrap;html=1;arrowWidth=1;arrowSize=0.23466601562500045;fillColor=#ffe6cc;strokeColor=#d79b00;fontSize=11;" vertex="1" parent="75F8sYAHgex0go4ryfyi-252">
          <mxGeometry x="215" y="210" width="100" height="45" as="geometry" />
        </mxCell>
        <mxCell id="75F8sYAHgex0go4ryfyi-328" style="edgeStyle=orthogonalEdgeStyle;rounded=0;orthogonalLoop=1;jettySize=auto;html=1;entryX=0;entryY=0.5;entryDx=0;entryDy=0;entryPerimeter=0;" edge="1" parent="75F8sYAHgex0go4ryfyi-252" source="75F8sYAHgex0go4ryfyi-273" target="75F8sYAHgex0go4ryfyi-327">
          <mxGeometry relative="1" as="geometry" />
        </mxCell>
        <mxCell id="75F8sYAHgex0go4ryfyi-329" style="edgeStyle=orthogonalEdgeStyle;rounded=0;orthogonalLoop=1;jettySize=auto;html=1;entryX=0;entryY=0.5;entryDx=0;entryDy=0;entryPerimeter=0;" edge="1" parent="75F8sYAHgex0go4ryfyi-252" source="75F8sYAHgex0go4ryfyi-273" target="75F8sYAHgex0go4ryfyi-326">
          <mxGeometry relative="1" as="geometry" />
        </mxCell>
        <mxCell id="75F8sYAHgex0go4ryfyi-330" style="edgeStyle=orthogonalEdgeStyle;rounded=0;orthogonalLoop=1;jettySize=auto;html=1;entryX=0;entryY=0.5;entryDx=0;entryDy=0;entryPerimeter=0;" edge="1" parent="75F8sYAHgex0go4ryfyi-252" source="75F8sYAHgex0go4ryfyi-273" target="75F8sYAHgex0go4ryfyi-325">
          <mxGeometry relative="1" as="geometry" />
        </mxCell>
        <mxCell id="75F8sYAHgex0go4ryfyi-319" style="edgeStyle=orthogonalEdgeStyle;rounded=0;orthogonalLoop=1;jettySize=auto;html=1;entryX=0.5;entryY=0;entryDx=0;entryDy=0;" edge="1" parent="1" source="75F8sYAHgex0go4ryfyi-165" target="75F8sYAHgex0go4ryfyi-281">
          <mxGeometry relative="1" as="geometry">
            <Array as="points">
              <mxPoint x="1750" y="1472" />
              <mxPoint x="1750" y="40" />
              <mxPoint x="1163" y="40" />
            </Array>
          </mxGeometry>
        </mxCell>
        <mxCell id="75F8sYAHgex0go4ryfyi-324" value="True" style="edgeStyle=orthogonalEdgeStyle;rounded=0;orthogonalLoop=1;jettySize=auto;html=1;entryX=0.5;entryY=0;entryDx=0;entryDy=0;" edge="1" parent="1" source="75F8sYAHgex0go4ryfyi-320" target="75F8sYAHgex0go4ryfyi-103">
          <mxGeometry x="-0.9567" y="10" relative="1" as="geometry">
            <Array as="points">
              <mxPoint x="1550" y="540" />
              <mxPoint x="1550" y="660" />
              <mxPoint x="1162" y="660" />
            </Array>
            <mxPoint as="offset" />
          </mxGeometry>
        </mxCell>
        <mxCell id="75F8sYAHgex0go4ryfyi-332" value="Legend" style="swimlane;whiteSpace=wrap;html=1;" vertex="1" parent="1">
          <mxGeometry x="908.75" y="780" width="132.5" height="300" as="geometry" />
        </mxCell>
        <mxCell id="75F8sYAHgex0go4ryfyi-331" value="Site" style="rounded=0;whiteSpace=wrap;html=1;fillColor=#dae8fc;strokeColor=#6c8ebf;" vertex="1" parent="75F8sYAHgex0go4ryfyi-332">
          <mxGeometry x="16.25" y="40" width="100" height="45" as="geometry" />
        </mxCell>
        <mxCell id="75F8sYAHgex0go4ryfyi-333" value="Action" style="shape=singleArrow;whiteSpace=wrap;html=1;arrowWidth=1;arrowSize=0.23466601562500045;fillColor=#ffe6cc;strokeColor=#d79b00;" vertex="1" parent="75F8sYAHgex0go4ryfyi-332">
          <mxGeometry x="16.25" y="100" width="100" height="45" as="geometry" />
        </mxCell>
        <mxCell id="75F8sYAHgex0go4ryfyi-334" value="Partial/&lt;div&gt;Attribute&lt;/div&gt;" style="rounded=1;whiteSpace=wrap;html=1;fillColor=#fad9d5;strokeColor=#ae4132;" vertex="1" parent="75F8sYAHgex0go4ryfyi-332">
          <mxGeometry x="16.25" y="155" width="100" height="45" as="geometry" />
        </mxCell>
        <mxCell id="75F8sYAHgex0go4ryfyi-344" value="Check" style="rhombus;whiteSpace=wrap;html=1;fillColor=#d5e8d4;strokeColor=#82b366;" vertex="1" parent="75F8sYAHgex0go4ryfyi-332">
          <mxGeometry x="26.25" y="210" width="80" height="80" as="geometry" />
        </mxCell>
      </root>
    </mxGraphModel>
  </diagram>
</mxfile>
